# xmcd CD database file
#
# Track frame offsets:
#	150
#	18565
#	34632
#	56738
#	73117
#	85699
#	108108
#	124207
#	141454
#	156741
#	172646
#	190784
#	203809
#	225767
#	248238
#	264120
#	279957
#	289455
#	306428
#
# Disc length: 4359 seconds
#
# Revision: 4
# Processed by: cddbd v1.5.2PL0 Copyright (c) Steve Scherf et al.
# Submitted via: CDex 1.70beta2
#
DISCID=0b110513
DTITLE=Ella Fitzgerald - Gold - All Her Greatest Hits 1
DYEAR=2003
DGENRE=Jazz
TTITLE0=Let's Fall In Love
TTITLE1=Ev'ry Time We Say Goodbye
TTITLE2=Summertime
TTITLE3=A Fine Romance
TTITLE4=The Very Thought Of You
TTITLE5=Mack The Knife
TTITLE6=Let's Do It (Let's Fall In Love)
TTITLE7=Cheek To Cheek
TTITLE8=The Lady Is A Tramp
TTITLE9=Get Happy
TTITLE10=I Get A Kick Out Of You
TTITLE11=Misty
TTITLE12=Embraceable You
TTITLE13=I Love Paris
TTITLE14=I Can't Give You Anything But Love
TTITLE15=Georgia On My Mind
TTITLE16=But Not For Me
TTITLE17=Blue Skies
TTITLE18=Someone To Watch Over Me
EXTD=YEAR: 2003
EXTT0=
EXTT1=
EXTT2=
EXTT3=
EXTT4=
EXTT5=
EXTT6=
EXTT7=
EXTT8=
EXTT9=
EXTT10=
EXTT11=
EXTT12=
EXTT13=
EXTT14=
EXTT15=
EXTT16=
EXTT17=
EXTT18=
PLAYORDER=
